<?xml version="1.0" encoding="utf-8"?>
<!-- Generator: Adobe Illustrator 16.0.0, SVG Export Plug-In . SVG Version: 6.00 Build 0)  -->
<!DOCTYPE svg PUBLIC "-//W3C//DTD SVG 1.1//EN" "http://www.w3.org/Graphics/SVG/1.1/DTD/svg11.dtd">
<svg version="1.1" id="Layer_1" xmlns="http://www.w3.org/2000/svg" xmlns:xlink="http://www.w3.org/1999/xlink" x="0px" y="0px"
	 width="129.5px" height="132.625px" viewBox="0 0 129.5 132.625" enable-background="new 0 0 129.5 132.625" xml:space="preserve">
<g>
	<path fill="#FFC107" d="M69.727,8.989c2.261,1.959,4.153,4.646,5.674,8.055l37.493,83.974c7.082-9.779,11.27-21.795,11.27-34.792
		c0-32.091-25.453-58.222-57.271-59.344C67.83,7.467,68.775,8.165,69.727,8.989z"/>
	<path fill="#FFC107" d="M92.738,117.262c-1.17-0.992-2.172-2.427-3.007-4.299l-6.409-14.354L40.42,117.764
		c-0.378,0.039-0.841,0.111-1.385,0.223c-0.543,0.111-1.502,0.111-2.871-0.004c-0.24-0.021-0.47-0.06-0.698-0.096
		c8.646,4.916,18.642,7.736,29.301,7.736c10.547,0,20.445-2.762,29.031-7.583C93.448,117.816,93.096,117.564,92.738,117.262z"/>
	<path fill="#FFC107" d="M29.74,113.13c-0.867-1.79-1.289-4.144-1.271-7.053c-0.069-4.589,0.699-14.761,2.306-30.519
		c1.604-15.757,3.218-30.396,4.833-43.916l2.283-18.386C18.596,23.067,5.366,43.095,5.366,66.224
		c0,20.146,10.037,37.938,25.376,48.678C30.398,114.391,30.064,113.799,29.74,113.13z"/>
</g>
</svg>
