<?xml version="1.0" encoding="utf-8"?>
<!-- Generator: Adobe Illustrator 16.0.0, SVG Export Plug-In . SVG Version: 6.00 Build 0)  -->
<!DOCTYPE svg PUBLIC "-//W3C//DTD SVG 1.1//EN" "http://www.w3.org/Graphics/SVG/1.1/DTD/svg11.dtd">
<svg version="1.1" id="Layer_1" xmlns="http://www.w3.org/2000/svg" xmlns:xlink="http://www.w3.org/1999/xlink" x="0px" y="0px"
	 width="612px" height="132.625px" viewBox="0 265.25 612 132.625" enable-background="new 0 265.25 612 132.625"
	 xml:space="preserve">
<g>
	<path fill="#99B4BF" d="M191.298,364.088c-2.47,1.797-6.587,2.694-12.348,2.694c-3.816,0-7.428-0.505-10.832-1.515
		c-3.406-1.012-6.624-2.619-9.654-4.827c-3.03-2.207-5.444-5.368-7.24-9.485c-1.796-4.114-2.694-8.98-2.694-14.593
		c0-11.599,2.506-19.886,7.52-24.863c5.013-4.976,13.283-7.466,24.808-7.466c3.666,0,6.959,0.188,9.877,0.562
		c2.918,0.375,5.238,0.785,6.96,1.235c1.721,0.448,3.292,1.085,4.714,1.908c1.421,0.824,2.394,1.459,2.918,1.908
		c0.523,0.45,1.104,1.066,1.74,1.853c0.635,0.785,0.992,1.217,1.066,1.291v66.227c0,3.666-0.599,6.304-1.795,7.913
		c-1.197,1.609-2.564,2.414-4.097,2.414c-1.535,0-3.405,0.093-5.613,0.281c-2.208,0.185-3.984,0.766-5.331,1.739V364.088z
		 M191.298,335.24c0.073-9.879,0.073-14.817,0-14.817h-0.112c-0.899-0.225-1.573-0.375-2.021-0.45
		c-0.448-0.073-1.684-0.225-3.704-0.448c-2.021-0.225-3.706-0.281-5.051-0.169c-1.348,0.112-3.031,0.449-5.052,1.01
		c-2.02,0.562-3.647,1.404-4.883,2.526c-1.234,1.122-2.32,2.732-3.255,4.826c-0.937,2.097-1.402,4.566-1.402,7.409
		c0,3.443,0.485,6.398,1.458,8.867c0.972,2.47,2.282,4.267,3.93,5.388c1.646,1.123,3.367,1.984,5.163,2.583
		c1.796,0.6,3.742,0.824,5.837,0.673c2.095-0.148,3.834-0.337,5.22-0.562c1.384-0.224,2.675-0.521,3.874-0.897V335.24z"/>
	<path fill="#99B4BF" d="M224.748,345.454v-40.858c2.618-0.149,4.863-0.129,6.734,0.056c1.87,0.188,3.629,0.618,5.276,1.291
		c1.645,0.674,2.879,1.778,3.704,3.312c0.823,1.536,1.196,3.463,1.123,5.781v24.247v0.225v5.612
		c1.122,5.539,6.21,7.708,15.266,6.511c4.639-0.599,7.37-1.047,8.195-1.347c-0.225-1.272-0.337-2.769-0.337-4.49v-30.757
		c-0.076-2.318,0.28-4.245,1.066-5.781c0.785-1.533,2.021-2.638,3.704-3.312c1.685-0.673,3.461-1.103,5.333-1.291
		c1.87-0.185,4.114-0.205,6.736-0.056v54.666c0,4.865-7.821,7.481-23.461,7.856C235.861,367.718,224.748,360.496,224.748,345.454z"
		/>
	<path fill="#99B4BF" d="M301.862,319.973c0-0.225-0.039-0.522-0.113-0.897c-0.076-0.374-0.093-1.104-0.056-2.189
		c0.037-1.083,0.15-2.113,0.336-3.087c0.187-0.971,0.563-2.076,1.124-3.311c0.562-1.235,1.309-2.282,2.245-3.143
		c0.935-0.86,2.206-1.589,3.817-2.189c1.607-0.598,3.496-0.898,5.668-0.898c0.674,0,1.721,0,3.143,0
		c1.945-0.073,3.947-0.073,6.006,0c2.059,0.075,4.115,0.168,6.174,0.281c2.057,0.111,4.059,0.431,6.006,0.954
		c1.945,0.523,3.797,1.161,5.557,1.908c1.756,0.75,3.367,1.815,4.826,3.199c1.459,1.385,2.73,2.975,3.816,4.77
		c1.084,1.797,1.926,4.005,2.525,6.623c0.598,2.621,0.898,5.576,0.898,8.869v0.784v0.785v0.899v0.785v0.898v0.898v1.01v1.122v1.123
		v1.348v1.795v0.898c0,3.069-0.336,5.855-1.01,8.363s-1.516,4.546-2.527,6.117c-1.01,1.571-2.262,2.957-3.76,4.153
		c-1.496,1.197-2.9,2.077-4.209,2.638c-1.311,0.561-2.826,1.01-4.545,1.346c-1.723,0.338-3.051,0.545-3.986,0.618
		c-0.936,0.076-2.039,0.113-3.311,0.113h-15.49c-0.225,0-0.563-0.019-1.01-0.057c-0.451-0.037-1.293-0.149-2.527-0.337
		c-1.234-0.186-2.412-0.467-3.535-0.842c-1.123-0.373-2.377-0.991-3.761-1.853c-1.385-0.858-2.563-1.869-3.536-3.03
		c-0.973-1.159-1.796-2.675-2.47-4.546c-0.674-1.87-1.01-3.966-1.01-6.286c0-4.114,0.522-7.577,1.571-10.383
		c1.048-2.807,2.638-4.977,4.771-6.512c2.134-1.532,4.509-2.599,7.128-3.199c2.619-0.598,5.799-0.897,9.541-0.897
		c6.512,0,10.943-0.429,13.301-1.291c2.359-0.859,3.539-2.188,3.539-3.985c0-2.542-2.453-4.265-7.355-5.163
		c-4.902-0.898-10.102-1.083-15.602-0.561C308.541,318.141,304.481,318.927,301.862,319.973z M337.446,336.924
		c-0.299,0.375-0.73,0.824-1.291,1.347c-0.563,0.524-1.814,1.218-3.76,2.077c-1.947,0.861-3.967,1.291-6.063,1.291
		c-3.666,0-6.641,0.449-8.924,1.347c-2.283,0.898-3.422,2.171-3.422,3.816c0,1.947,0.82,3.407,2.467,4.378
		c1.646,0.975,4.939,1.459,9.879,1.459c2.021,0,3.572-0.018,4.658-0.056c1.084-0.036,2.096-0.317,3.033-0.842
		c0.932-0.522,1.586-1.011,1.961-1.459c0.377-0.45,0.693-1.403,0.957-2.862c0.26-1.46,0.41-2.862,0.449-4.21
		C337.426,341.863,337.446,339.768,337.446,336.924z"/>
	<path fill="#99B4BF" d="M404.571,351.966c1.047,3.294,1.195,6.324,0.447,9.092c-0.748,2.77-2.02,4.603-3.816,5.501
		c-3.891,1.196-7.688,1.552-11.393,1.065s-6.998-1.515-9.879-3.086c-2.881-1.572-5.221-3.854-7.016-6.848s-2.693-6.398-2.693-10.215
		v-48.268c-0.074-2.319,0.299-4.247,1.121-5.781c0.824-1.533,2.061-2.638,3.707-3.311c1.643-0.674,3.404-1.104,5.273-1.292
		c1.871-0.187,4.117-0.206,6.736-0.056v16.275h19.307c0,0.225,0,0.506,0,0.843s-0.076,1.029-0.225,2.076
		c-0.148,1.049-0.375,2.059-0.672,3.031c-0.301,0.974-0.807,2.04-1.518,3.2c-0.711,1.161-1.555,2.152-2.523,2.975
		c-0.975,0.823-2.285,1.515-3.93,2.076c-1.646,0.561-3.48,0.842-5.502,0.842c-1.795,0-3.441,0.039-4.938,0.112l0.111,25.93
		c-0.074,2.02,0.338,3.573,1.234,4.658c0.898,1.085,2.115,1.722,3.648,1.907c1.533,0.188,3.068,0.226,4.604,0.112
		c1.533-0.112,3.104-0.28,4.715-0.505C402.979,352.077,404.047,351.966,404.571,351.966z"/>
	<path fill="#99B4BF" d="M412.653,335.465c-0.074-0.449-0.131-1.048-0.166-1.797c-0.041-0.746,0.072-2.206,0.336-4.377
		c0.26-2.17,0.689-4.246,1.289-6.229c0.598-1.982,1.645-4.171,3.145-6.567c1.494-2.394,3.348-4.452,5.555-6.174
		c2.207-1.721,5.182-3.16,8.924-4.322c3.742-1.159,8.008-1.74,12.799-1.74c3.367,0,6.471,0.264,9.314,0.785
		c2.844,0.525,5.295,1.235,7.354,2.134c2.059,0.898,3.891,2.021,5.5,3.368c1.609,1.347,2.938,2.676,3.986,3.985
		c1.047,1.31,1.926,2.862,2.637,4.658c0.711,1.795,1.254,3.351,1.627,4.658c0.375,1.311,0.637,2.846,0.787,4.602
		c0.148,1.761,0.242,3.088,0.279,3.984c0.037,0.899,0.037,2.041,0,3.426s-0.055,2.151-0.055,2.3c0,1.198-0.041,2.284-0.111,3.255
		c-0.078,0.974-0.301,2.509-0.674,4.603c-0.377,2.097-0.9,3.968-1.572,5.613c-0.674,1.646-1.74,3.443-3.199,5.388
		c-1.461,1.947-3.184,3.575-5.164,4.884c-1.982,1.309-4.564,2.413-7.746,3.311c-3.18,0.898-6.754,1.348-10.717,1.348
		c-4.119,0-7.785-0.262-11.004-0.787c-3.217-0.522-5.947-1.215-8.193-2.076c-2.244-0.859-4.209-2.038-5.893-3.535
		s-3.051-3.032-4.1-4.604c-1.049-1.57-1.906-3.517-2.58-5.837c-0.674-2.318-1.18-4.546-1.514-6.679
		C413.158,340.909,412.879,338.383,412.653,335.465z M429.379,336.474c0.225,2.62,0.541,4.698,0.953,6.229
		c0.41,1.536,1.16,3.05,2.246,4.547c1.084,1.498,2.711,2.581,4.881,3.255c2.172,0.674,4.939,1.012,8.307,1.012
		c2.619,0,4.865-0.412,6.736-1.235c1.869-0.823,3.254-1.758,4.154-2.807c0.896-1.047,1.607-2.319,2.131-3.816
		c0.523-1.496,0.824-2.619,0.898-3.368c0.074-0.747,0.111-1.57,0.111-2.47c0-0.073,0-0.466,0-1.178c0-0.711,0-1.309,0-1.796
		c0-0.486-0.037-1.216-0.111-2.189c-0.074-0.972-0.207-1.813-0.393-2.524c-0.188-0.711-0.447-1.553-0.785-2.526
		c-0.336-0.972-0.75-1.814-1.236-2.525s-1.123-1.44-1.908-2.189c-0.785-0.748-1.666-1.364-2.637-1.853
		c-0.975-0.485-2.152-0.878-3.537-1.178c-1.385-0.298-2.9-0.449-4.545-0.449c-2.994,0-5.539,0.412-7.633,1.234
		c-2.096,0.825-3.631,1.779-4.604,2.863c-0.973,1.085-1.721,2.507-2.244,4.265c-0.523,1.76-0.805,3.126-0.842,4.098
		c-0.039,0.973-0.02,2.208,0.057,3.704C429.379,336.025,429.379,336.325,429.379,336.474z"/>
	<path fill="#99B4BF" d="M492.012,345.454v-40.858c2.619-0.149,4.863-0.129,6.736,0.056c1.867,0.188,3.629,0.618,5.275,1.291
		c1.645,0.674,2.879,1.778,3.703,3.312c0.822,1.536,1.195,3.463,1.123,5.781v24.247v0.225v5.612
		c1.121,5.539,6.211,7.708,15.266,6.511c4.641-0.599,7.371-1.047,8.193-1.347c-0.223-1.272-0.334-2.769-0.334-4.49v-30.757
		c-0.076-2.318,0.279-4.245,1.066-5.781c0.785-1.533,2.02-2.638,3.701-3.312c1.686-0.673,3.463-1.103,5.332-1.291
		c1.871-0.185,4.117-0.205,6.736-0.056v54.666c0,4.865-7.82,7.481-23.461,7.856C503.125,367.718,492.012,360.496,492.012,345.454z"
		/>
	<path fill="#99B4BF" d="M606.504,304.259c-0.074,0.151-0.055,0.937,0.059,2.357c0.111,1.423,0.092,2.788-0.059,4.097
		c-0.15,1.311-0.447,2.714-0.896,4.21c-0.447,1.497-1.367,2.694-2.75,3.592c-1.385,0.898-3.162,1.347-5.332,1.347
		c-3.143,0-5.576,0.111-7.297,0.336c-1.723,0.225-3.254,0.785-4.602,1.684c-1.348,0.898-2.246,2.171-2.693,3.816
		c-0.449,1.646-0.674,3.892-0.674,6.733v35.921c-1.348-0.974-3.125-1.739-5.332-2.301c-2.209-0.562-4.08-0.991-5.613-1.29
		s-2.9-1.179-4.096-2.639c-1.199-1.459-1.797-3.572-1.797-6.343v-30.082c0-0.449,0.016-1.067,0.057-1.853
		c0.037-0.785,0.168-1.87,0.393-3.255c0.223-1.383,0.598-2.768,1.121-4.153c0.523-1.383,1.309-2.824,2.357-4.322
		c1.049-1.496,2.32-2.806,3.816-3.928c1.496-1.123,3.426-2.057,5.781-2.807c2.357-0.747,4.996-1.122,7.914-1.122
		c5.012,0,8.717,0,11.113,0c2.395,0,3.703,0,3.928,0c0.227,0,0.656,0,1.293,0C603.83,304.259,604.934,304.259,606.504,304.259z"/>
</g>
<g>
	<path fill="#99B4BF" d="M69.727,274.61c2.261,1.959,4.153,4.645,5.674,8.054l37.493,83.972
		c7.082-9.779,11.268-21.793,11.268-34.791c0-32.09-25.453-58.221-57.271-59.343C67.83,273.087,68.775,273.785,69.727,274.61z"/>
	<path fill="#99B4BF" d="M92.738,382.881c-1.17-0.993-2.172-2.426-3.007-4.298l-6.409-14.355l-42.903,19.155
		c-0.378,0.039-0.841,0.112-1.385,0.223c-0.543,0.112-1.502,0.111-2.871-0.004c-0.24-0.02-0.468-0.059-0.698-0.096
		c8.648,4.916,18.642,7.737,29.301,7.737c10.547,0,20.445-2.761,29.031-7.583C93.448,383.437,93.096,383.186,92.738,382.881z"/>
	<path fill="#99B4BF" d="M29.74,378.75c-0.867-1.79-1.289-4.142-1.269-7.053c-0.069-4.588,0.699-14.76,2.306-30.518
		c1.603-15.757,3.216-30.396,4.833-43.916l2.283-18.385c-19.297,9.809-32.527,29.837-32.527,52.966
		c0,20.146,10.039,37.938,25.376,48.677C30.398,380.01,30.064,379.419,29.74,378.75z"/>
</g>
</svg>
