<?xml version="1.0" encoding="utf-8"?>
<!-- Generator: Adobe Illustrator 16.0.0, SVG Export Plug-In . SVG Version: 6.00 Build 0)  -->
<!DOCTYPE svg PUBLIC "-//W3C//DTD SVG 1.1//EN" "http://www.w3.org/Graphics/SVG/1.1/DTD/svg11.dtd">
<svg version="1.1" id="Layer_1" xmlns="http://www.w3.org/2000/svg" xmlns:xlink="http://www.w3.org/1999/xlink" x="0px" y="0px"
	 width="612px" height="132.625px" viewBox="0 0 612 132.625" enable-background="new 0 0 612 132.625" xml:space="preserve">
<g>
	<path fill="#FFFFFF" d="M191.298,98.468c-2.47,1.797-6.587,2.694-12.348,2.694c-3.816,0-7.429-0.505-10.832-1.515
		c-3.406-1.013-6.624-2.619-9.654-4.828c-3.03-2.207-5.444-5.367-7.24-9.484c-1.796-4.114-2.694-8.98-2.694-14.594
		c0-11.598,2.507-19.885,7.521-24.862c5.013-4.976,13.283-7.466,24.808-7.466c3.666,0,6.959,0.188,9.877,0.563
		s5.238,0.784,6.96,1.234c1.722,0.447,3.292,1.085,4.715,1.908c1.421,0.824,2.394,1.459,2.918,1.908
		c0.522,0.449,1.104,1.065,1.739,1.853c0.636,0.785,0.992,1.217,1.066,1.291v66.228c0,3.666-0.599,6.303-1.795,7.912
		c-1.197,1.609-2.564,2.414-4.097,2.414c-1.535,0-3.405,0.094-5.613,0.281c-2.208,0.186-3.984,0.766-5.331,1.738L191.298,98.468
		L191.298,98.468z M191.298,69.62c0.073-9.879,0.073-14.817,0-14.817h-0.112c-0.898-0.226-1.573-0.375-2.021-0.45
		c-0.448-0.072-1.685-0.225-3.704-0.447c-2.021-0.226-3.706-0.281-5.051-0.17c-1.349,0.112-3.031,0.449-5.053,1.011
		c-2.02,0.562-3.646,1.403-4.883,2.526c-1.233,1.121-2.32,2.731-3.255,4.825c-0.937,2.097-1.402,4.566-1.402,7.409
		c0,3.443,0.485,6.398,1.458,8.867c0.973,2.47,2.282,4.268,3.931,5.388c1.646,1.123,3.367,1.984,5.163,2.583
		c1.796,0.6,3.741,0.824,5.837,0.674c2.095-0.148,3.834-0.338,5.22-0.563c1.384-0.225,2.675-0.521,3.874-0.896V69.62H191.298z"/>
	<path fill="#FFFFFF" d="M224.748,79.834V38.976c2.618-0.148,4.862-0.129,6.733,0.057c1.87,0.188,3.629,0.617,5.276,1.291
		c1.645,0.674,2.879,1.777,3.704,3.312c0.823,1.536,1.196,3.464,1.123,5.781v24.247v0.225V79.5c1.122,5.539,6.21,7.708,15.266,6.511
		c4.639-0.599,7.37-1.047,8.195-1.347c-0.226-1.272-0.337-2.769-0.337-4.49V49.417c-0.076-2.318,0.279-4.245,1.065-5.781
		c0.785-1.533,2.021-2.638,3.704-3.313c1.686-0.672,3.461-1.102,5.333-1.291c1.87-0.184,4.114-0.204,6.736-0.055v54.666
		c0,4.864-7.821,7.48-23.461,7.855C235.861,102.098,224.748,94.876,224.748,79.834z"/>
	<path fill="#FFFFFF" d="M301.862,54.353c0-0.225-0.039-0.521-0.113-0.896c-0.075-0.374-0.093-1.104-0.056-2.189
		c0.037-1.082,0.15-2.113,0.336-3.087c0.188-0.971,0.563-2.075,1.124-3.312c0.563-1.234,1.31-2.281,2.245-3.143
		c0.935-0.859,2.206-1.589,3.817-2.189c1.606-0.598,3.496-0.897,5.668-0.897c0.674,0,1.721,0,3.143,0
		c1.945-0.073,3.947-0.073,6.006,0c2.06,0.075,4.115,0.169,6.174,0.281c2.058,0.11,4.06,0.431,6.007,0.954
		c1.944,0.523,3.797,1.16,5.557,1.908c1.756,0.75,3.367,1.814,4.826,3.199s2.729,2.975,3.815,4.77
		c1.084,1.797,1.927,4.005,2.525,6.623c0.598,2.621,0.898,5.576,0.898,8.869v0.783v0.785v0.899v0.784v0.898v0.898v1.01v1.122v1.123
		v1.349v1.795v0.897c0,3.069-0.337,5.854-1.011,8.362c-0.674,2.509-1.516,4.547-2.526,6.117c-1.011,1.571-2.263,2.957-3.761,4.153
		c-1.496,1.197-2.899,2.077-4.209,2.638c-1.311,0.562-2.825,1.01-4.545,1.347c-1.723,0.338-3.051,0.545-3.985,0.618
		c-0.937,0.076-2.039,0.113-3.312,0.113h-15.49c-0.225,0-0.563-0.02-1.01-0.058c-0.451-0.037-1.293-0.149-2.527-0.337
		c-1.233-0.186-2.411-0.467-3.534-0.842c-1.123-0.373-2.377-0.991-3.762-1.854c-1.385-0.857-2.563-1.869-3.535-3.029
		c-0.974-1.16-1.797-2.676-2.471-4.547c-0.674-1.869-1.01-3.966-1.01-6.285c0-4.114,0.521-7.578,1.571-10.383
		c1.048-2.808,2.638-4.978,4.771-6.513c2.134-1.532,4.509-2.599,7.128-3.198c2.619-0.599,5.799-0.898,9.541-0.898
		c6.513,0,10.943-0.428,13.301-1.29c2.359-0.859,3.539-2.188,3.539-3.985c0-2.542-2.452-4.265-7.354-5.162
		c-4.902-0.898-10.103-1.084-15.603-0.562C308.54,52.521,304.481,53.308,301.862,54.353z M337.446,71.304
		c-0.299,0.375-0.729,0.824-1.291,1.348c-0.563,0.523-1.813,1.217-3.76,2.076c-1.947,0.861-3.967,1.291-6.063,1.291
		c-3.666,0-6.642,0.449-8.925,1.348c-2.282,0.897-3.422,2.17-3.422,3.815c0,1.947,0.82,3.407,2.467,4.378
		c1.646,0.975,4.939,1.459,9.88,1.459c2.021,0,3.571-0.018,4.657-0.056c1.084-0.036,2.097-0.317,3.033-0.843
		c0.932-0.521,1.586-1.01,1.961-1.459c0.377-0.449,0.693-1.402,0.957-2.861c0.26-1.46,0.41-2.861,0.449-4.21
		C337.426,76.243,337.446,74.147,337.446,71.304z"/>
	<path fill="#FFFFFF" d="M404.571,86.346c1.047,3.294,1.195,6.324,0.447,9.093c-0.748,2.77-2.021,4.603-3.816,5.5
		c-3.891,1.196-7.688,1.553-11.393,1.065s-6.998-1.515-9.879-3.086c-2.881-1.572-5.221-3.854-7.017-6.849
		c-1.795-2.994-2.692-6.397-2.692-10.215V33.587c-0.074-2.318,0.299-4.247,1.121-5.781c0.824-1.533,2.061-2.638,3.707-3.311
		c1.643-0.674,3.403-1.104,5.272-1.293c1.871-0.186,4.117-0.205,6.736-0.055v16.274h19.307c0,0.226,0,0.506,0,0.843
		c0,0.338-0.076,1.029-0.225,2.076c-0.148,1.049-0.375,2.059-0.672,3.031c-0.301,0.974-0.808,2.04-1.519,3.199
		c-0.711,1.162-1.555,2.152-2.522,2.976c-0.976,0.823-2.285,1.515-3.931,2.076s-3.479,0.842-5.502,0.842
		c-1.795,0-3.44,0.039-4.938,0.112l0.111,25.93c-0.074,2.02,0.338,3.573,1.233,4.658c0.898,1.085,2.115,1.722,3.648,1.906
		c1.532,0.188,3.067,0.227,4.604,0.113c1.533-0.113,3.104-0.281,4.715-0.506C402.979,86.457,404.047,86.346,404.571,86.346z"/>
	<path fill="#FFFFFF" d="M412.653,69.845c-0.074-0.449-0.131-1.048-0.166-1.797c-0.041-0.746,0.072-2.206,0.336-4.377
		c0.261-2.17,0.689-4.246,1.289-6.229c0.599-1.982,1.646-4.172,3.146-6.567c1.494-2.394,3.348-4.452,5.555-6.175
		c2.207-1.721,5.182-3.159,8.924-4.321c3.742-1.159,8.008-1.739,12.799-1.739c3.367,0,6.472,0.264,9.314,0.784
		c2.844,0.524,5.295,1.235,7.354,2.134c2.06,0.898,3.892,2.021,5.5,3.368c1.609,1.347,2.938,2.677,3.986,3.985
		c1.047,1.31,1.926,2.861,2.637,4.658c0.711,1.795,1.254,3.351,1.627,4.658c0.375,1.311,0.638,2.846,0.787,4.602
		c0.148,1.761,0.242,3.088,0.279,3.984c0.037,0.898,0.037,2.041,0,3.426s-0.055,2.15-0.055,2.3c0,1.198-0.041,2.284-0.111,3.255
		c-0.078,0.975-0.301,2.509-0.674,4.604c-0.377,2.096-0.9,3.967-1.572,5.612c-0.674,1.646-1.74,3.442-3.199,5.388
		c-1.461,1.947-3.184,3.575-5.164,4.885c-1.981,1.309-4.563,2.412-7.746,3.311c-3.18,0.898-6.754,1.348-10.717,1.348
		c-4.119,0-7.785-0.262-11.004-0.787c-3.217-0.521-5.947-1.215-8.192-2.076c-2.244-0.858-4.209-2.037-5.894-3.534
		c-1.684-1.497-3.051-3.032-4.1-4.604c-1.05-1.57-1.906-3.517-2.58-5.836c-0.674-2.318-1.181-4.547-1.515-6.68
		C413.157,75.289,412.879,72.763,412.653,69.845z M429.379,70.854c0.225,2.619,0.541,4.697,0.952,6.229
		c0.41,1.535,1.16,3.05,2.246,4.547c1.084,1.498,2.711,2.581,4.882,3.255c2.172,0.675,4.938,1.013,8.307,1.013
		c2.619,0,4.865-0.412,6.736-1.235c1.868-0.823,3.254-1.759,4.153-2.808c0.896-1.047,1.607-2.318,2.131-3.815
		c0.523-1.496,0.824-2.619,0.898-3.368c0.074-0.747,0.111-1.57,0.111-2.471c0-0.072,0-0.465,0-1.178c0-0.711,0-1.309,0-1.795
		s-0.037-1.217-0.111-2.189s-0.207-1.813-0.393-2.524c-0.188-0.711-0.447-1.553-0.785-2.526c-0.336-0.971-0.75-1.813-1.236-2.524
		s-1.123-1.44-1.908-2.188s-1.666-1.365-2.637-1.854c-0.975-0.484-2.152-0.878-3.537-1.178c-1.385-0.299-2.899-0.449-4.545-0.449
		c-2.994,0-5.539,0.412-7.633,1.234c-2.097,0.824-3.631,1.779-4.604,2.863c-0.973,1.084-1.721,2.506-2.244,4.264
		c-0.522,1.761-0.805,3.127-0.842,4.099c-0.039,0.974-0.02,2.208,0.058,3.704C429.379,70.405,429.379,70.705,429.379,70.854z"/>
	<path fill="#FFFFFF" d="M492.012,79.834V38.976c2.619-0.148,4.863-0.129,6.735,0.057c1.867,0.188,3.63,0.617,5.275,1.291
		s2.879,1.777,3.703,3.312c0.822,1.536,1.195,3.464,1.123,5.781v24.247v0.225V79.5c1.121,5.539,6.211,7.708,15.266,6.511
		c4.642-0.599,7.371-1.047,8.193-1.347c-0.224-1.272-0.334-2.769-0.334-4.49V49.417c-0.076-2.318,0.279-4.245,1.065-5.781
		c0.785-1.533,2.021-2.638,3.701-3.313c1.687-0.672,3.463-1.102,5.332-1.291c1.871-0.184,4.117-0.204,6.736-0.055v54.666
		c0,4.864-7.82,7.48-23.461,7.855C503.125,102.098,492.012,94.876,492.012,79.834z"/>
	<path fill="#FFFFFF" d="M606.504,38.64c-0.074,0.15-0.056,0.936,0.059,2.356c0.111,1.423,0.092,2.788-0.059,4.097
		c-0.15,1.311-0.447,2.715-0.896,4.21c-0.447,1.497-1.367,2.694-2.75,3.593c-1.385,0.897-3.162,1.346-5.332,1.346
		c-3.143,0-5.576,0.111-7.297,0.336c-1.723,0.226-3.254,0.785-4.602,1.685c-1.349,0.897-2.246,2.171-2.693,3.815
		c-0.449,1.646-0.674,3.893-0.674,6.734v35.92c-1.349-0.974-3.125-1.738-5.332-2.301c-2.209-0.563-4.08-0.99-5.613-1.289
		c-1.533-0.3-2.899-1.18-4.096-2.64c-1.199-1.459-1.797-3.572-1.797-6.343V60.077c0-0.449,0.016-1.067,0.057-1.854
		c0.037-0.785,0.168-1.869,0.394-3.255c0.223-1.383,0.598-2.769,1.12-4.153c0.523-1.383,1.31-2.824,2.357-4.322
		c1.049-1.495,2.32-2.805,3.816-3.928c1.495-1.123,3.426-2.057,5.78-2.807c2.357-0.747,4.996-1.122,7.914-1.122
		c5.013,0,8.717,0,11.113,0c2.395,0,3.703,0,3.928,0c0.228,0,0.656,0,1.293,0C603.829,38.64,604.934,38.64,606.504,38.64z"/>
</g>
<g>
	<path fill="#FFC107" d="M69.727,8.989c2.261,1.959,4.153,4.646,5.674,8.055l37.493,83.973c7.082-9.779,11.269-21.794,11.269-34.791
		c0-32.091-25.453-58.222-57.271-59.344C67.83,7.467,68.775,8.165,69.727,8.989z"/>
	<path fill="#FFC107" d="M92.738,117.261c-1.17-0.992-2.172-2.426-3.007-4.298l-6.409-14.354l-42.902,19.154
		c-0.378,0.039-0.841,0.112-1.385,0.223c-0.543,0.112-1.502,0.111-2.871-0.004c-0.24-0.02-0.469-0.059-0.698-0.096
		c8.647,4.916,18.642,7.737,29.301,7.737c10.547,0,20.445-2.761,29.031-7.583C93.448,117.817,93.096,117.565,92.738,117.261z"/>
	<path fill="#FFC107" d="M29.74,113.13c-0.867-1.79-1.289-4.143-1.27-7.053c-0.069-4.588,0.699-14.76,2.306-30.518
		c1.604-15.758,3.217-30.396,4.833-43.916l2.283-18.386C18.596,23.067,5.366,43.095,5.366,66.224
		c0,20.146,10.038,37.938,25.376,48.678C30.398,114.39,30.064,113.799,29.74,113.13z"/>
</g>
</svg>
